<svg width="18" height="18" viewBox="0 0 18 18" fill="none" xmlns="http://www.w3.org/2000/svg">
<path d="M9.6399 8.355C9.02626 8.63716 8.62764 9.24345 8.62764 9.90236V10.8353C8.62764 11.0661 8.81495 11.2535 9.04582 11.2535C9.27668 11.2535 9.464 11.0661 9.464 10.8353V9.90236C9.464 9.5675 9.66237 9.26502 9.98919 9.11479L9.94742 9.02393L9.98919 9.11479C10.8014 8.74141 11.3273 7.93076 11.3273 7.04764C11.3273 5.78631 10.2816 4.76364 9 4.76364C7.71845 4.76364 6.67273 5.78631 6.67273 7.04764C6.67273 7.2785 6.86004 7.46582 7.09091 7.46582C7.32177 7.46582 7.50909 7.2785 7.50909 7.04764C7.50909 6.25221 8.17545 5.6 9 5.6C9.82456 5.6 10.4909 6.25196 10.4909 7.04764C10.4909 7.60315 10.1578 8.11683 9.6399 8.355ZM9.6399 8.355L9.68167 8.44586L9.63989 8.355C9.63989 8.355 9.63989 8.355 9.6399 8.355ZM9 1.9C5.08484 1.9 1.9 5.08484 1.9 9C1.9 12.9152 5.08484 16.1 9 16.1C12.9152 16.1 16.1 12.9152 16.1 9C16.1 5.08484 12.9152 1.9 9 1.9ZM9 15.2636C5.54632 15.2636 2.73636 12.4537 2.73636 9C2.73636 5.54632 5.54632 2.73636 9 2.73636C12.4537 2.73636 15.2636 5.54632 15.2636 9C15.2636 12.4537 12.4537 15.2636 9 15.2636ZM9.46273 12.8182V12.5041C9.46273 12.2732 9.27541 12.0859 9.04455 12.0859C8.81368 12.0859 8.62636 12.2732 8.62636 12.5041V12.8182C8.62636 13.049 8.81368 13.2364 9.04455 13.2364C9.27541 13.2364 9.46273 13.049 9.46273 12.8182Z" fill="black" stroke="black" stroke-width="0.2"/>
</svg>
