<svg width="18" height="18" viewBox="0 0 18 18" fill="none" xmlns="http://www.w3.org/2000/svg">
<path d="M16.3134 4.17395L16.3137 4.1742C16.8402 4.68218 16.8737 5.54909 16.3657 6.09433C16.3656 6.09436 16.3656 6.0944 16.3656 6.09444L12.4241 10.3786C12.3581 10.4625 12.2841 10.5344 12.1904 10.571C11.7796 10.7432 10.9971 11.0302 10.2069 11.2743C9.81149 11.3964 9.41353 11.5079 9.05876 11.589C8.7049 11.6699 8.39075 11.7212 8.16432 11.7212H4.76433C4.50547 11.7212 4.30716 11.4995 4.30716 11.2462C4.30716 10.9901 4.50803 10.789 4.76433 10.789H7.43477C7.52259 10.1277 7.77007 8.72572 8.2805 6.90038M16.3134 4.17395L8.32866 6.91385M16.3134 4.17395C15.9155 3.79556 15.4983 3.41661 15.0817 3.03809C14.814 2.79485 14.5464 2.55178 14.2843 2.30916C13.7389 1.80093 12.857 1.83451 12.349 2.39443M16.3134 4.17395L12.349 2.39443M8.2805 6.90038L8.32866 6.91385M8.2805 6.90038C8.28049 6.90042 8.28048 6.90046 8.28047 6.90049L8.32866 6.91385M8.2805 6.90038C8.30119 6.82587 8.35294 6.75114 8.40746 6.70012M8.32866 6.91385C8.34649 6.84952 8.39299 6.78168 8.44299 6.73535M8.40746 6.70012L8.40611 6.70159L8.44299 6.73535M8.40746 6.70012L12.349 2.39443M8.40746 6.70012C8.40797 6.69963 8.40849 6.69915 8.409 6.69868L8.44299 6.73535M8.44299 6.73535L12.349 2.39443M12.349 2.39443L12.386 2.42802L12.3491 2.39426L12.349 2.39443ZM13.8603 10.2283H13.854V10.2783V14.2035C13.854 15.2546 12.9942 16.1143 11.9432 16.1143H4.7965C3.74544 16.1143 2.88567 15.2546 2.88567 14.2035V6.22102C2.88567 5.16641 3.7455 4.30669 4.7965 4.30669H9.26099C9.51428 4.30669 9.73599 4.10838 9.73599 3.84952C9.73599 3.59341 9.5171 3.37452 9.26099 3.37452H4.7965C3.23322 3.37452 1.95 4.65757 1.95 6.22102V14.2035C1.95 15.7668 3.23305 17.05 4.7965 17.05H11.9432C13.5066 17.05 14.7896 15.7668 14.7896 14.2035V10.2783C14.7896 10.0251 14.5913 9.80334 14.3325 9.80334C14.0932 9.80334 13.8864 9.99438 13.8603 10.2283ZM15.702 5.4522L12.0403 9.42186L9.40289 6.98958L13.048 3.019L13.0481 3.01882C13.2082 2.84274 13.486 2.82722 13.6615 3.00271L13.663 3.00418L15.6727 4.8496C15.833 5.01398 15.8481 5.27658 15.702 5.4522ZM4.30716 13.4213C4.30716 13.6776 4.50823 13.8785 4.76433 13.8785H12.0431C12.2964 13.8785 12.5181 13.6804 12.5181 13.4213C12.5181 13.1623 12.2964 12.9642 12.0431 12.9642H4.76433C4.50805 12.9642 4.30716 13.1651 4.30716 13.4213ZM11.2464 9.94997C9.90514 10.4626 8.93095 10.6577 8.37493 10.7278C8.47185 10.155 8.64787 9.15095 8.97772 7.86785L11.2464 9.94997Z" fill="black" stroke="black" stroke-width="0.1"/>
</svg>
